<?xml version="1.0" encoding="UTF-8"?>
<svg xmlns="http://www.w3.org/2000/svg" xmlns:xlink="http://www.w3.org/1999/xlink" viewBox="0 0 144 144" width="144px" height="144px">
<g id="surface35557579">
<path style=" stroke:none;fill-rule:nonzero;fill:rgb(18.82353%,30.980393%,99.607843%);fill-opacity:1;" d="M 125.011719 40.441406 C 123.808594 41.21875 122.101562 41.941406 121.378906 42.75 C 121.109375 43.019531 120.960938 43.320312 121.019531 43.621094 L 121.019531 46.710938 L 120.121094 49.738281 L 119.21875 52.738281 L 118.230469 56.039062 L 116.191406 62.789062 L 114.210938 69.449219 L 112.710938 74.460938 C 112.710938 75.238281 112.679688 76.019531 112.621094 76.769531 C 112.410156 79.648438 111.808594 82.410156 110.851562 84.988281 C 110.28125 86.578125 109.589844 88.109375 108.75 89.550781 C 108.449219 90.121094 108.089844 90.691406 107.730469 91.230469 C 106.53125 93.121094 105.089844 94.859375 103.5 96.390625 C 102.269531 97.621094 100.921875 98.761719 99.449219 99.71875 C 99.449219 99.71875 99.449219 99.71875 99.421875 99.71875 C 99.179688 99.929688 98.910156 100.109375 98.609375 100.261719 C 97.679688 100.890625 96.691406 101.429688 95.671875 101.910156 C 94.980469 102.269531 94.289062 102.570312 93.570312 102.839844 C 93.421875 102.929688 93.238281 102.988281 93.089844 103.050781 C 91.378906 103.859375 89.398438 104.398438 87.421875 104.671875 C 87.300781 104.699219 87.210938 104.699219 87.089844 104.730469 C 85.890625 104.941406 84.71875 105.121094 83.519531 105.210938 C 82.980469 105.269531 82.410156 105.300781 81.871094 105.300781 L 79.738281 105.179688 L 69.480469 104.640625 C 69.480469 104.609375 69.449219 104.640625 69.449219 104.640625 L 64.289062 104.371094 C 63.898438 104.371094 63.480469 104.371094 63.089844 104.339844 C 61.46875 104.28125 59.910156 104.101562 58.351562 103.769531 C 58.320312 103.769531 58.320312 103.769531 58.320312 103.769531 C 55.46875 103.230469 52.738281 102.269531 50.191406 100.980469 C 48.78125 100.261719 47.398438 99.449219 46.109375 98.519531 C 45.570312 98.128906 45.058594 97.710938 44.550781 97.261719 C 43.109375 96.058594 41.820312 94.769531 40.621094 93.449219 C 40.441406 93.269531 40.289062 93.089844 40.140625 92.910156 C 39.960938 92.730469 39.78125 92.519531 39.628906 92.339844 C 38.488281 90.898438 37.53125 89.429688 36.75 87.871094 C 36.03125 86.488281 35.460938 85.019531 35.011719 83.398438 C 34.828125 82.828125 34.679688 82.289062 34.558594 81.691406 C 34.53125 81.660156 34.5 81.601562 34.5 81.539062 C 34.199219 80.308594 33.929688 79.019531 33.78125 77.730469 C 33.601562 76.738281 33.511719 75.75 33.511719 74.730469 C 33.449219 74.339844 33.449219 73.921875 33.449219 73.53125 L 39.179688 64.679688 L 44.789062 56.039062 L 47.339844 52.109375 L 49.648438 48.570312 L 50.429688 47.339844 L 50.429688 44.25 C 50.488281 43.558594 50.519531 42.839844 50.488281 42.179688 C 50.460938 40.078125 50.039062 38.039062 49.351562 36.089844 C 48.691406 34.019531 47.761719 32.070312 46.800781 30.269531 C 45.660156 28.199219 44.460938 26.339844 43.46875 24.660156 C 42 22.199219 40.980469 20.191406 41.25 18.78125 C 43.410156 18.269531 45.691406 18 48 18 L 96 18 C 108.539062 18 119.339844 25.800781 123.808594 36.78125 C 124.289062 37.949219 124.710938 39.179688 125.011719 40.441406 Z M 125.011719 40.441406 "/>
<path style=" stroke:none;fill-rule:nonzero;fill:rgb(28.627452%,15.686275%,95.686275%);fill-opacity:1;" d="M 126 48 L 126 48.808594 L 121.859375 51.210938 L 119.21875 52.738281 L 116.308594 54.421875 L 110.488281 57.808594 L 104.789062 61.109375 L 98.96875 64.46875 L 96.660156 65.820312 C 96.660156 67.261719 96.300781 68.578125 95.640625 69.78125 C 94.710938 71.519531 93.148438 72.960938 91.171875 74.191406 C 89.160156 75.421875 86.699219 76.410156 83.941406 77.128906 C 83.941406 77.128906 83.941406 77.101562 83.910156 77.128906 C 73.230469 79.890625 58.648438 78.628906 51.570312 73.351562 C 49.589844 71.878906 48.210938 70.078125 47.609375 68.011719 C 47.429688 67.320312 47.339844 66.570312 47.339844 65.820312 L 47.339844 44.25 C 47.371094 43.800781 47.070312 43.351562 46.53125 42.898438 C 44.910156 41.609375 41.101562 40.378906 36.839844 39.148438 C 33.511719 38.21875 29.941406 37.289062 26.941406 36.390625 C 24.570312 35.671875 22.558594 34.949219 21.359375 34.261719 C 21.898438 33.210938 22.53125 32.160156 23.191406 31.171875 C 27.390625 25.019531 33.808594 20.488281 41.25 18.78125 C 43.410156 18.269531 45.691406 18 48 18 L 80.398438 18 C 96.511719 20.820312 111.359375 27.390625 123.808594 36.78125 C 124.289062 37.949219 124.710938 39.179688 125.011719 40.441406 C 125.550781 42.421875 125.878906 44.460938 125.96875 46.589844 C 126 47.039062 126 47.519531 126 48 Z M 126 48 "/>
<path style=" stroke:none;fill-rule:nonzero;fill:rgb(38.431373%,0%,91.764706%);fill-opacity:1;" d="M 126 48 L 126 61.230469 L 125.339844 63.269531 L 123.089844 70.261719 L 120.75 77.460938 L 119.519531 81.300781 L 118.378906 84.871094 L 117.269531 88.261719 L 116.191406 91.621094 L 115.621094 93.390625 L 114.871094 95.730469 C 114.871094 98.011719 114.808594 100.019531 114.660156 101.730469 C 114.628906 101.910156 114.601562 102.089844 114.601562 102.269531 C 114.421875 103.859375 114.179688 105.210938 113.789062 106.351562 C 113.761719 106.53125 113.699219 106.710938 113.640625 106.859375 C 112.859375 109.019531 111.691406 110.398438 109.949219 111.300781 C 109.53125 111.539062 109.050781 111.71875 108.539062 111.898438 C 106.949219 112.441406 104.941406 112.710938 102.480469 112.859375 C 100.679688 112.980469 98.609375 113.011719 96.269531 113.011719 L 94.199219 113.011719 L 90.628906 112.859375 L 90 112.828125 L 83.488281 112.558594 L 76.890625 112.289062 L 55.140625 111.390625 L 49.5 111.148438 L 48.71875 111.148438 C 46.378906 111.121094 44.371094 110.96875 42.628906 110.730469 C 40.109375 110.339844 38.160156 109.679688 36.691406 108.691406 C 34.589844 107.339844 33.359375 105.359375 32.640625 102.601562 C 32.460938 101.941406 32.308594 101.25 32.21875 100.5 C 31.921875 98.761719 31.769531 96.75 31.679688 94.5 C 31.679688 94.050781 31.679688 93.601562 31.648438 93.121094 C 31.621094 93.089844 31.648438 93.089844 31.648438 93.089844 L 31.648438 91.351562 C 31.621094 90.480469 31.621094 89.578125 31.621094 88.648438 L 31.769531 83.820312 L 31.859375 80.371094 L 31.980469 76.351562 L 31.980469 75.78125 L 32.191406 68.398438 L 32.398438 61.019531 L 32.609375 54.089844 L 32.789062 47.28125 L 32.851562 45.480469 C 32.851562 44.550781 29.699219 44.011719 26.191406 43.558594 C 23.398438 43.199219 20.339844 42.871094 18.511719 42.449219 C 18.660156 41.761719 18.808594 41.070312 18.988281 40.410156 C 19.53125 38.25 20.339844 36.210938 21.359375 34.261719 C 21.898438 33.210938 22.53125 32.160156 23.191406 31.171875 C 29.671875 28.320312 36.421875 26.101562 43.46875 24.660156 C 49.648438 23.371094 56.101562 22.679688 62.761719 22.679688 C 84.839844 22.679688 105.238281 30.148438 121.378906 42.75 C 122.941406 43.949219 124.46875 45.238281 125.96875 46.589844 C 126 47.039062 126 47.519531 126 48 Z M 126 48 "/>
<path style=" stroke:none;fill-rule:nonzero;fill:rgb(40.392157%,22.745098%,71.764708%);fill-opacity:1;" d="M 126 55.109375 L 126 68.730469 L 124.351562 71.910156 L 121.199219 78.058594 L 119.519531 81.300781 L 117.988281 84.269531 L 117.328125 85.558594 C 117.328125 86.488281 117.328125 87.390625 117.269531 88.261719 C 117.269531 89.550781 117.210938 90.78125 117.121094 91.921875 C 117 93.269531 116.820312 94.5 116.640625 95.640625 C 116.191406 98.011719 115.558594 100.050781 114.660156 101.730469 C 114.539062 101.941406 114.421875 102.148438 114.300781 102.328125 C 113.96875 102.871094 113.578125 103.378906 113.160156 103.859375 C 112.621094 104.519531 112.019531 105.089844 111.328125 105.570312 C 110.308594 106.351562 109.109375 106.980469 107.730469 107.460938 C 106.019531 108.089844 104.039062 108.511719 101.699219 108.75 C 100.171875 108.898438 98.488281 108.988281 96.660156 108.988281 L 95.398438 109.050781 L 89.160156 109.410156 L 89.128906 109.410156 L 82.5 109.800781 L 75.75 110.191406 L 66.449219 110.730469 L 55.140625 111.390625 L 53.488281 111.480469 C 51.960938 111.480469 50.519531 111.390625 49.140625 111.210938 C 48.988281 111.179688 48.871094 111.148438 48.71875 111.148438 C 46.679688 110.820312 44.820312 110.28125 43.140625 109.53125 C 41.101562 108.628906 39.328125 107.429688 37.828125 105.988281 C 36.511719 104.699219 35.371094 103.230469 34.441406 101.578125 C 34.230469 101.191406 34.019531 100.828125 33.839844 100.410156 C 32.941406 98.640625 32.21875 96.660156 31.679688 94.5 C 31.589844 94.140625 31.5 93.75 31.441406 93.359375 C 31.261719 92.671875 31.109375 91.949219 31.019531 91.199219 C 30.691406 89.28125 30.511719 87.238281 30.421875 85.109375 L 30.421875 85.078125 C 30.390625 84.210938 30.359375 83.371094 30.359375 82.46875 L 28.890625 78.960938 L 28.679688 78.421875 L 28.5 77.96875 L 26.25 72.601562 L 25.890625 71.730469 L 23.730469 66.539062 L 21.328125 60.75 C 21.328125 60.75 21.328125 60.75 21.300781 60.75 L 18.871094 54.898438 L 18 52.769531 L 18 48 C 18 46.109375 18.179688 44.25 18.511719 42.449219 C 18.660156 41.761719 18.808594 41.070312 18.988281 40.410156 C 21.539062 38.941406 24.210938 37.589844 26.941406 36.390625 C 33.179688 33.601562 39.871094 31.53125 46.800781 30.269531 C 51.960938 29.339844 57.328125 28.828125 62.761719 28.828125 C 84.691406 28.828125 104.578125 36.78125 120.121094 49.738281 C 120.71875 50.21875 121.289062 50.699219 121.859375 51.210938 C 123.269531 52.441406 124.648438 53.730469 126 55.109375 Z M 126 55.109375 "/>
<path style=" stroke:none;fill-rule:nonzero;fill:rgb(55.686277%,14.117648%,66.666669%);fill-opacity:1;" d="M 126 64.050781 L 126 79.46875 L 124.289062 83.039062 L 121.050781 89.789062 L 121.019531 89.878906 C 121.019531 91.171875 120.960938 92.339844 120.871094 93.390625 C 120.570312 96.839844 119.730469 99.03125 118.351562 100.378906 C 117.359375 101.398438 116.128906 101.96875 114.601562 102.269531 C 114.511719 102.300781 114.390625 102.300781 114.300781 102.328125 C 113.820312 102.421875 113.308594 102.480469 112.769531 102.480469 C 110.910156 102.660156 108.71875 102.539062 106.199219 102.359375 C 105.929688 102.359375 105.628906 102.328125 105.328125 102.300781 C 103.5 102.179688 101.550781 102.058594 99.390625 101.96875 C 98.21875 101.941406 96.988281 101.910156 95.730469 101.910156 L 95.671875 101.910156 L 92.640625 102.148438 L 92.609375 102.148438 L 85.800781 102.628906 L 78.03125 103.230469 L 76.890625 103.320312 L 67.800781 103.980469 L 63.089844 104.339844 L 58.441406 104.671875 C 57.628906 104.671875 56.851562 104.671875 56.070312 104.640625 C 56.070312 104.640625 56.039062 104.609375 56.039062 104.640625 C 52.648438 104.578125 49.621094 104.371094 46.921875 103.859375 C 44.429688 103.441406 42.238281 102.78125 40.378906 101.789062 C 38.460938 100.859375 36.871094 99.539062 35.578125 97.859375 C 34.351562 96.210938 33.449219 94.140625 32.878906 91.648438 C 32.878906 91.621094 32.878906 91.621094 32.878906 91.621094 C 32.460938 89.609375 32.21875 87.269531 32.21875 84.628906 L 31.769531 83.820312 L 29.101562 79.050781 L 28.710938 78.390625 L 28.5 77.96875 L 25.710938 73.019531 L 24.328125 70.53125 L 22.589844 67.441406 L 19.589844 62.070312 L 18 59.25 L 18 48.210938 C 20.640625 46.46875 23.371094 44.941406 26.191406 43.558594 C 29.609375 41.820312 33.148438 40.351562 36.839844 39.148438 C 40.859375 37.828125 45.058594 36.78125 49.351562 36.089844 C 53.699219 35.371094 58.171875 35.011719 62.761719 35.011719 C 83.160156 35.011719 101.878906 42.300781 116.308594 54.421875 C 116.96875 54.929688 117.601562 55.5 118.230469 56.039062 C 120.75 58.289062 123.148438 60.71875 125.339844 63.269531 C 125.578125 63.539062 125.820312 63.78125 126 64.050781 Z M 126 64.050781 "/>
<path style=" stroke:none;fill-rule:nonzero;fill:rgb(76.078433%,9.411765%,35.686275%);fill-opacity:1;" d="M 126 74.128906 L 126 95.820312 C 125.28125 95.398438 124.289062 94.890625 123.058594 94.351562 C 122.398438 94.019531 121.648438 93.691406 120.871094 93.390625 C 119.730469 92.878906 118.5 92.398438 117.121094 91.921875 C 116.820312 91.800781 116.519531 91.710938 116.191406 91.621094 C 115.648438 91.410156 115.078125 91.230469 114.511719 91.050781 C 112.738281 90.511719 110.789062 90 108.75 89.550781 C 107.96875 89.398438 107.160156 89.25 106.351562 89.128906 C 103.738281 88.679688 100.949219 88.410156 98.039062 88.378906 C 97.800781 88.351562 97.53125 88.351562 97.289062 88.351562 L 89.578125 88.410156 L 79.078125 88.46875 L 79.050781 88.46875 L 56.578125 88.648438 C 49.441406 88.648438 45.058594 90.359375 42.421875 91.050781 C 42.421875 91.050781 42.390625 91.050781 42.390625 91.078125 C 39.601562 91.800781 38.730469 91.351562 38.488281 86.460938 C 38.429688 85.109375 38.398438 83.371094 38.398438 81.238281 L 36.71875 79.949219 L 33.78125 77.730469 L 31.980469 76.351562 L 31.621094 76.078125 L 26.640625 72.300781 L 25.890625 71.730469 L 24.328125 70.53125 L 21.449219 68.371094 L 18 65.730469 L 18 55.53125 C 18.300781 55.289062 18.570312 55.078125 18.871094 54.898438 C 23.21875 51.898438 27.871094 49.351562 32.789062 47.28125 C 37.171875 45.421875 41.789062 43.949219 46.53125 42.898438 C 47.820312 42.628906 49.140625 42.359375 50.488281 42.179688 C 54.480469 41.488281 58.589844 41.160156 62.761719 41.160156 C 80.789062 41.160156 97.351562 47.429688 110.488281 57.808594 C 112.46875 59.371094 114.390625 61.019531 116.191406 62.789062 C 118.648438 65.128906 120.960938 67.621094 123.089844 70.261719 C 123.511719 70.800781 123.929688 71.339844 124.351562 71.910156 C 124.921875 72.628906 125.460938 73.378906 126 74.128906 Z M 126 74.128906 "/>
<path style=" stroke:none;fill-rule:nonzero;fill:rgb(84.705883%,10.588235%,37.64706%);fill-opacity:1;" d="M 126 86.160156 L 126 96 C 126 97.949219 125.820312 99.871094 125.460938 101.730469 C 124.921875 104.488281 123.988281 107.128906 122.730469 109.589844 C 122.070312 109.738281 121.320312 109.738281 120.480469 109.621094 C 118.589844 109.289062 116.371094 108.300781 113.96875 107.011719 C 113.851562 106.980469 113.730469 106.921875 113.640625 106.859375 C 112.890625 106.46875 112.109375 106.050781 111.328125 105.570312 C 109.738281 104.699219 108.058594 103.738281 106.378906 102.839844 C 106.019531 102.660156 105.660156 102.480469 105.328125 102.300781 C 103.410156 101.308594 101.429688 100.410156 99.449219 99.71875 C 99.449219 99.71875 99.449219 99.71875 99.421875 99.71875 C 99 99.570312 98.550781 99.421875 98.101562 99.300781 C 96.390625 98.820312 94.648438 98.519531 92.96875 98.519531 L 89.671875 97.558594 L 75.058594 93.328125 C 75.058594 93.328125 75.058594 93.328125 75.03125 93.328125 L 66.058594 90.71875 L 66.03125 90.71875 L 62.128906 89.578125 C 50.851562 89.578125 43.921875 94.378906 40.558594 92.550781 C 39.238281 91.859375 38.460938 90.121094 38.191406 86.699219 C 38.101562 85.738281 38.070312 84.660156 38.070312 83.398438 L 34.558594 81.691406 L 34.410156 81.628906 L 34.378906 81.628906 L 31.859375 80.371094 L 29.101562 79.050781 L 28.890625 78.960938 L 28.378906 78.691406 L 22.5 75.839844 L 18 73.648438 L 18 63.359375 C 18.511719 62.910156 19.050781 62.488281 19.589844 62.070312 C 20.160156 61.621094 20.730469 61.199219 21.300781 60.75 C 21.328125 60.75 21.328125 60.75 21.328125 60.75 C 24.871094 58.199219 28.621094 55.949219 32.609375 54.089844 C 37.261719 51.871094 42.210938 50.160156 47.339844 49.050781 C 48.089844 48.871094 48.871094 48.691406 49.648438 48.570312 C 53.910156 47.761719 58.289062 47.339844 62.761719 47.339844 C 78.570312 47.339844 93.089844 52.46875 104.789062 61.109375 C 108.179688 63.628906 111.328125 66.421875 114.210938 69.449219 C 116.578125 71.941406 118.769531 74.640625 120.75 77.460938 C 120.898438 77.671875 121.050781 77.878906 121.199219 78.058594 C 122.308594 79.679688 123.328125 81.328125 124.289062 83.039062 C 124.921875 84.058594 125.460938 85.109375 126 86.160156 Z M 126 86.160156 "/>
<path style=" stroke:none;fill-rule:nonzero;fill:rgb(96.078432%,0%,34.117648%);fill-opacity:1;" d="M 125.460938 101.730469 C 124.921875 104.488281 123.988281 107.128906 122.730469 109.589844 C 122.160156 110.699219 121.53125 111.75 120.839844 112.769531 C 120.421875 113.398438 119.96875 114 119.519531 114.570312 C 118.441406 114.148438 116.851562 113.550781 114.898438 112.890625 C 114.898438 112.890625 114.898438 112.890625 114.898438 112.859375 C 113.429688 112.351562 111.75 111.808594 109.949219 111.300781 C 109.441406 111.148438 108.929688 111 108.390625 110.851562 C 106.261719 110.28125 104.039062 109.769531 101.878906 109.46875 C 100.078125 109.171875 98.308594 108.988281 96.660156 108.988281 L 95.28125 108.601562 L 95.25 108.601562 L 87.988281 106.5 L 83.519531 105.210938 L 78.539062 103.769531 L 78.511719 103.769531 L 76.890625 103.320312 L 57.300781 97.679688 L 51.660156 96.058594 L 47.460938 95.070312 L 40.621094 93.449219 L 39.78125 93.238281 C 39.78125 93.238281 39.78125 93.238281 39.75 93.238281 L 32.878906 91.648438 C 32.878906 91.621094 32.878906 91.621094 32.878906 91.621094 L 31.648438 91.351562 L 31.019531 91.199219 L 26.011719 90.03125 L 25.441406 89.878906 L 21.179688 86.371094 L 18 83.699219 L 18 71.460938 C 19.109375 70.378906 20.25 69.359375 21.449219 68.371094 C 21.808594 68.039062 22.199219 67.738281 22.589844 67.441406 C 22.949219 67.140625 23.339844 66.839844 23.730469 66.539062 C 26.460938 64.46875 29.339844 62.609375 32.398438 61.019531 C 36.300781 58.921875 40.441406 57.238281 44.789062 56.039062 C 45.628906 55.769531 46.46875 55.53125 47.339844 55.351562 C 52.261719 54.121094 57.421875 53.488281 62.761719 53.488281 C 76.171875 53.488281 88.648438 57.539062 98.96875 64.46875 C 104.101562 67.921875 108.71875 72.058594 112.621094 76.769531 C 114.601562 79.140625 116.398438 81.628906 117.988281 84.269531 C 118.140625 84.480469 118.261719 84.660156 118.378906 84.871094 C 119.339844 86.460938 120.238281 88.109375 121.050781 89.789062 C 121.800781 91.289062 122.460938 92.789062 123.058594 94.351562 C 124.019531 96.75 124.800781 99.210938 125.460938 101.730469 Z M 125.460938 101.730469 "/>
<path style=" stroke:none;fill-rule:nonzero;fill:rgb(100%,9.019608%,26.666668%);fill-opacity:1;" d="M 120.839844 112.769531 C 120.421875 113.398438 119.96875 114 119.519531 114.570312 C 118.199219 116.21875 116.761719 117.71875 115.140625 119.039062 C 113.730469 120.210938 112.230469 121.261719 110.640625 122.160156 C 110.039062 122.011719 109.441406 121.828125 108.808594 121.589844 C 106.828125 120.898438 104.761719 119.761719 102.839844 118.558594 C 99.960938 116.730469 97.46875 114.75 96.359375 113.851562 C 95.941406 113.488281 95.730469 113.308594 95.730469 113.308594 L 90.628906 112.859375 L 90 112.800781 L 83.398438 112.230469 L 76.558594 111.628906 L 66.449219 110.730469 L 50.429688 109.320312 L 50.371094 109.289062 L 44.730469 106.558594 L 39.03125 103.800781 L 34.441406 101.578125 L 33.449219 101.101562 L 32.21875 100.5 L 27.960938 98.429688 L 22.289062 95.699219 L 20.519531 94.828125 L 18 94.050781 L 18 80.640625 C 19.410156 78.960938 20.910156 77.371094 22.5 75.839844 C 23.519531 74.878906 24.601562 73.921875 25.710938 73.019531 C 25.890625 72.871094 26.070312 72.71875 26.25 72.601562 C 26.371094 72.449219 26.519531 72.359375 26.640625 72.300781 C 28.410156 70.859375 30.269531 69.570312 32.191406 68.398438 C 34.410156 66.988281 36.75 65.730469 39.179688 64.679688 C 41.789062 63.511719 44.519531 62.519531 47.339844 61.769531 C 52.230469 60.390625 57.421875 59.671875 62.761719 59.671875 C 75 59.671875 86.308594 63.390625 95.640625 69.78125 C 101.609375 73.859375 106.769531 79.019531 110.851562 84.988281 C 112.199219 86.910156 113.398438 88.949219 114.511719 91.050781 C 114.898438 91.828125 115.289062 92.609375 115.621094 93.390625 C 115.980469 94.140625 116.308594 94.890625 116.640625 95.640625 C 117.269531 97.199219 117.839844 98.761719 118.351562 100.378906 C 119.308594 103.378906 120.03125 106.441406 120.480469 109.621094 C 120.628906 110.671875 120.75 111.71875 120.839844 112.769531 Z M 120.839844 112.769531 "/>
<path style=" stroke:none;fill-rule:nonzero;fill:rgb(100%,34.117648%,13.333334%);fill-opacity:1;" d="M 115.171875 118.261719 C 115.171875 118.5 115.171875 118.769531 115.140625 119.039062 C 113.730469 120.210938 112.230469 121.261719 110.640625 122.160156 C 109.980469 122.519531 109.320312 122.878906 108.628906 123.179688 C 107.941406 123.511719 107.25 123.808594 106.53125 124.078125 C 105.511719 123.539062 104.128906 122.878906 102.660156 122.25 C 100.589844 121.320312 98.339844 120.480469 96.601562 120.210938 C 96.179688 120.121094 95.789062 120.089844 95.429688 120.089844 L 90.511719 119.460938 L 90.449219 119.460938 L 84.328125 118.648438 L 78.148438 117.839844 L 75.269531 117.480469 L 52.589844 114.539062 C 51.121094 114.539062 49.558594 114.449219 47.941406 114.238281 C 45.960938 114.058594 43.890625 113.761719 41.820312 113.339844 C 39.78125 112.980469 37.710938 112.5 35.730469 111.988281 C 33.660156 111.511719 31.621094 110.941406 29.730469 110.398438 C 27.539062 109.738281 25.5 109.109375 23.789062 108.539062 C 22.378906 108.089844 21.179688 107.671875 20.25 107.339844 C 19.710938 106.050781 19.261719 104.699219 18.929688 103.320312 C 18.300781 100.980469 18 98.519531 18 96 L 18 90.988281 C 18.960938 89.398438 20.011719 87.839844 21.179688 86.371094 C 23.308594 83.550781 25.738281 80.96875 28.378906 78.691406 C 28.46875 78.570312 28.589844 78.480469 28.679688 78.421875 L 28.710938 78.390625 C 29.640625 77.550781 30.601562 76.800781 31.621094 76.078125 C 31.738281 75.960938 31.859375 75.871094 31.980469 75.78125 C 32.460938 75.421875 32.96875 75.058594 33.511719 74.730469 C 37.800781 71.820312 42.539062 69.539062 47.609375 68.011719 C 52.410156 66.570312 57.480469 65.820312 62.761719 65.820312 C 73.230469 65.820312 83.011719 68.910156 91.171875 74.191406 C 97.199219 78.058594 102.390625 83.160156 106.351562 89.128906 C 106.828125 89.820312 107.28125 90.511719 107.730469 91.230469 C 109.800781 94.738281 111.511719 98.519531 112.769531 102.480469 C 112.921875 102.929688 113.039062 103.378906 113.160156 103.859375 C 113.398438 104.671875 113.609375 105.511719 113.789062 106.351562 C 113.851562 106.558594 113.910156 106.769531 113.96875 107.011719 C 114.390625 108.898438 114.691406 110.878906 114.898438 112.859375 C 114.898438 112.890625 114.898438 112.890625 114.898438 112.890625 C 115.078125 114.660156 115.171875 116.460938 115.171875 118.261719 Z M 115.171875 118.261719 "/>
<path style=" stroke:none;fill-rule:nonzero;fill:rgb(100%,43.529412%,0%);fill-opacity:1;" d="M 108.988281 118.261719 C 108.988281 119.308594 108.929688 120.449219 108.808594 121.589844 C 108.75 122.128906 108.691406 122.671875 108.628906 123.179688 C 107.941406 123.511719 107.25 123.808594 106.53125 124.078125 C 105.179688 124.589844 103.800781 125.011719 102.390625 125.308594 C 101.429688 125.519531 100.441406 125.699219 99.449219 125.789062 L 99.421875 125.789062 C 98.488281 125.21875 97.410156 124.53125 96.300781 123.75 C 94.289062 122.339844 92.191406 120.75 90.511719 119.460938 C 90.480469 119.429688 90.480469 119.429688 90.449219 119.398438 C 88.679688 118.050781 87.421875 117.03125 87.421875 117.03125 L 84.238281 117.148438 L 78.121094 117.359375 L 75.269531 117.480469 L 63.808594 117.898438 L 54.121094 118.261719 C 53.488281 118.289062 52.738281 118.289062 51.808594 118.261719 L 51.78125 118.261719 C 50.519531 118.230469 49.019531 118.140625 47.371094 117.988281 C 45.449219 117.839844 43.351562 117.660156 41.21875 117.449219 C 39.148438 117.210938 37.050781 116.96875 35.039062 116.730469 C 32.820312 116.488281 30.71875 116.21875 28.921875 115.980469 C 27.511719 115.800781 26.28125 115.648438 25.289062 115.53125 C 24.449219 114.570312 23.699219 113.578125 22.980469 112.5 C 21.898438 110.878906 20.96875 109.171875 20.25 107.339844 C 19.710938 106.050781 19.261719 104.699219 18.929688 103.320312 C 19.800781 100.648438 20.941406 98.128906 22.289062 95.699219 C 23.371094 93.71875 24.628906 91.828125 26.011719 90.03125 C 27.359375 88.261719 28.828125 86.609375 30.421875 85.109375 L 30.421875 85.078125 C 30.871094 84.628906 31.320312 84.210938 31.769531 83.820312 C 32.609375 83.039062 33.480469 82.320312 34.378906 81.628906 L 34.410156 81.628906 C 34.441406 81.570312 34.46875 81.570312 34.5 81.539062 C 35.21875 80.96875 35.96875 80.460938 36.71875 79.949219 C 41.160156 76.921875 46.171875 74.671875 51.570312 73.351562 C 55.140625 72.480469 58.890625 72 62.761719 72 C 70.378906 72 77.578125 73.828125 83.910156 77.128906 L 83.941406 77.128906 C 89.371094 79.921875 94.171875 83.761719 98.039062 88.378906 C 100.171875 90.839844 102 93.539062 103.5 96.390625 C 104.550781 98.308594 105.449219 100.320312 106.199219 102.359375 C 106.261719 102.539062 106.320312 102.691406 106.378906 102.839844 C 106.890625 104.339844 107.339844 105.898438 107.730469 107.460938 C 108 108.570312 108.210938 109.710938 108.390625 110.851562 C 108.449219 111.210938 108.511719 111.539062 108.539062 111.898438 C 108.839844 113.96875 108.988281 116.101562 108.988281 118.261719 Z M 108.988281 118.261719 "/>
<path style=" stroke:none;fill-rule:nonzero;fill:rgb(100%,59.607846%,0%);fill-opacity:1;" d="M 102.839844 118.261719 L 102.839844 118.558594 C 102.839844 119.578125 102.75 120.871094 102.660156 122.25 C 102.570312 123.269531 102.480469 124.320312 102.390625 125.308594 C 101.429688 125.519531 100.441406 125.699219 99.449219 125.789062 L 99.421875 125.789062 C 98.28125 125.941406 97.171875 126 96 126 L 90.75 126 L 89.609375 125.671875 L 83.699219 123.871094 L 77.699219 122.070312 L 63.808594 117.898438 L 57.808594 116.101562 C 57.808594 116.101562 55.320312 117.089844 51.808594 118.261719 L 51.78125 118.261719 C 50.429688 118.710938 48.960938 119.191406 47.398438 119.671875 C 45.449219 120.238281 43.378906 120.808594 41.339844 121.261719 C 39.238281 121.738281 37.171875 122.101562 35.308594 122.25 C 34.738281 122.308594 34.171875 122.339844 33.660156 122.339844 C 31.980469 121.410156 30.359375 120.300781 28.890625 119.070312 C 27.601562 117.988281 26.398438 116.820312 25.289062 115.53125 C 24.449219 114.570312 23.699219 113.578125 22.980469 112.5 C 23.191406 111.148438 23.429688 109.828125 23.789062 108.539062 C 24.691406 104.96875 26.101562 101.550781 27.960938 98.429688 C 28.980469 96.660156 30.121094 94.949219 31.441406 93.359375 C 31.46875 93.269531 31.558594 93.179688 31.648438 93.121094 C 31.621094 93.089844 31.648438 93.089844 31.648438 93.089844 C 32.039062 92.578125 32.460938 92.101562 32.878906 91.648438 C 32.878906 91.621094 32.878906 91.621094 32.878906 91.621094 C 34.109375 90.300781 35.371094 89.039062 36.75 87.871094 C 37.230469 87.480469 37.679688 87.089844 38.191406 86.699219 C 38.28125 86.609375 38.371094 86.550781 38.488281 86.460938 C 45.238281 81.300781 53.671875 78.179688 62.761719 78.179688 C 73.078125 78.179688 82.46875 82.050781 89.578125 88.410156 C 93 91.5 95.910156 95.191406 98.101562 99.300781 C 98.28125 99.601562 98.460938 99.929688 98.609375 100.261719 C 98.878906 100.800781 99.148438 101.371094 99.390625 101.96875 C 100.378906 104.128906 101.160156 106.410156 101.699219 108.75 C 101.761719 108.988281 101.820312 109.230469 101.878906 109.46875 C 102.121094 110.578125 102.328125 111.71875 102.480469 112.859375 C 102.71875 114.628906 102.839844 116.429688 102.839844 118.261719 Z M 102.839844 118.261719 "/>
<path style=" stroke:none;fill-rule:nonzero;fill:rgb(100%,75.686276%,2.745098%);fill-opacity:1;" d="M 96.660156 118.261719 C 96.660156 118.859375 96.628906 119.519531 96.601562 120.210938 C 96.539062 121.320312 96.449219 122.519531 96.300781 123.75 C 96.238281 124.5 96.121094 125.25 96 126 L 79.558594 126 L 76.378906 125.488281 L 63.960938 123.511719 L 62.191406 123.238281 L 58.140625 122.578125 C 56.371094 122.578125 52.53125 123.359375 48.480469 124.109375 C 46.351562 124.5 44.191406 124.921875 42.238281 125.191406 C 42 125.21875 41.761719 125.25 41.550781 125.28125 L 41.519531 125.28125 C 39.421875 124.828125 37.378906 124.140625 35.460938 123.238281 C 34.859375 122.96875 34.261719 122.671875 33.660156 122.339844 C 31.980469 121.410156 30.359375 120.300781 28.890625 119.070312 C 28.859375 118.710938 28.828125 118.410156 28.828125 118.261719 C 28.828125 117.480469 28.859375 116.730469 28.921875 115.980469 C 29.039062 114.058594 29.308594 112.199219 29.730469 110.398438 C 30.390625 107.671875 31.351562 105.03125 32.640625 102.601562 C 32.878906 102.089844 33.148438 101.578125 33.449219 101.101562 C 33.570312 100.859375 33.71875 100.648438 33.839844 100.410156 C 34.378906 99.539062 34.980469 98.699219 35.578125 97.859375 C 36.839844 96.210938 38.25 94.648438 39.75 93.238281 C 39.78125 93.238281 39.78125 93.238281 39.78125 93.238281 C 39.898438 93.121094 40.019531 93 40.140625 92.910156 C 40.289062 92.789062 40.410156 92.640625 40.558594 92.550781 C 41.160156 92.011719 41.761719 91.53125 42.390625 91.078125 C 42.390625 91.050781 42.421875 91.050781 42.421875 91.050781 C 48.089844 86.820312 55.109375 84.328125 62.761719 84.328125 C 68.699219 84.328125 74.21875 85.828125 79.050781 88.46875 L 79.078125 88.46875 C 83.21875 90.75 86.820312 93.839844 89.671875 97.558594 C 90.78125 99 91.769531 100.53125 92.609375 102.148438 L 92.640625 102.148438 C 92.789062 102.449219 92.941406 102.75 93.089844 103.050781 C 93.988281 104.820312 94.710938 106.679688 95.25 108.601562 L 95.28125 108.601562 C 95.308594 108.75 95.371094 108.898438 95.398438 109.050781 C 95.761719 110.339844 96.058594 111.660156 96.269531 113.011719 C 96.300781 113.28125 96.328125 113.578125 96.359375 113.851562 C 96.570312 115.289062 96.660156 116.761719 96.660156 118.261719 Z M 96.660156 118.261719 "/>
<path style=" stroke:none;fill-rule:nonzero;fill:rgb(100%,83.529413%,30.980393%);fill-opacity:1;" d="M 90.511719 117.929688 C 90.511719 118.410156 90.511719 118.921875 90.449219 119.398438 L 90.449219 119.429688 C 90.449219 119.460938 90.449219 119.460938 90.449219 119.460938 C 90.390625 121.621094 90.089844 123.75 89.609375 125.671875 C 89.609375 125.789062 89.578125 125.878906 89.519531 126 L 75.511719 126 L 63.960938 123.511719 L 62.429688 123.179688 L 62.191406 123.238281 L 49.378906 125.878906 L 48.808594 126 L 48 126 C 46.078125 126 44.191406 125.820312 42.359375 125.460938 C 42.089844 125.398438 41.820312 125.339844 41.550781 125.28125 L 41.519531 125.28125 C 39.421875 124.828125 37.378906 124.140625 35.460938 123.238281 C 35.398438 122.910156 35.339844 122.578125 35.308594 122.25 C 35.101562 120.960938 35.011719 119.609375 35.011719 118.261719 C 35.011719 117.75 35.011719 117.238281 35.039062 116.730469 C 35.128906 115.109375 35.371094 113.519531 35.730469 111.988281 C 35.96875 110.851562 36.300781 109.738281 36.691406 108.691406 C 37.019531 107.761719 37.410156 106.859375 37.828125 105.988281 C 38.191406 105.238281 38.609375 104.519531 39.03125 103.800781 C 39.449219 103.109375 39.898438 102.449219 40.378906 101.789062 C 41.578125 100.140625 42.988281 98.609375 44.550781 97.261719 C 45.449219 96.480469 46.441406 95.730469 47.460938 95.070312 C 51.839844 92.191406 57.089844 90.511719 62.761719 90.511719 C 63.871094 90.511719 64.949219 90.570312 66 90.71875 L 66.058594 90.71875 C 69.269531 91.078125 72.269531 91.980469 75.03125 93.328125 C 75.058594 93.328125 75.058594 93.328125 75.058594 93.328125 C 79.410156 95.460938 83.101562 98.671875 85.800781 102.628906 C 86.25 103.289062 86.699219 104.011719 87.089844 104.730469 C 87.421875 105.300781 87.71875 105.898438 87.988281 106.5 C 88.410156 107.429688 88.800781 108.421875 89.128906 109.410156 L 89.160156 109.410156 C 89.488281 110.519531 89.789062 111.628906 90 112.800781 L 90 112.828125 C 90.328125 114.480469 90.511719 116.191406 90.511719 117.929688 Z M 90.511719 117.929688 "/>
<path style=" stroke:none;fill-rule:nonzero;fill:rgb(100%,87.843138%,50.980395%);fill-opacity:1;" d="M 84.328125 118.558594 L 84.328125 118.648438 C 84.328125 120.421875 84.121094 122.160156 83.699219 123.871094 C 83.550781 124.589844 83.339844 125.308594 83.070312 126 L 69.628906 126 L 62.761719 124.109375 L 55.890625 126 L 48 126 C 46.078125 126 44.191406 125.820312 42.359375 125.460938 C 42.300781 125.371094 42.269531 125.28125 42.238281 125.191406 C 41.820312 123.898438 41.488281 122.609375 41.339844 121.261719 C 41.21875 120.390625 41.160156 119.488281 41.160156 118.558594 C 41.160156 118.199219 41.160156 117.808594 41.21875 117.449219 C 41.25 116.039062 41.460938 114.660156 41.820312 113.339844 C 42 112.441406 42.269531 111.570312 42.628906 110.730469 C 42.75 110.308594 42.929688 109.921875 43.140625 109.53125 C 43.589844 108.511719 44.128906 107.519531 44.730469 106.558594 C 45.390625 105.601562 46.109375 104.699219 46.921875 103.859375 C 47.878906 102.78125 48.960938 101.789062 50.191406 100.980469 C 52.289062 99.449219 54.691406 98.308594 57.300781 97.679688 C 59.039062 97.199219 60.871094 96.960938 62.761719 96.960938 C 68.761719 96.960938 74.128906 99.359375 78.03125 103.230469 C 78.179688 103.378906 78.359375 103.558594 78.511719 103.769531 L 78.539062 103.769531 C 78.960938 104.21875 79.351562 104.671875 79.738281 105.179688 C 80.851562 106.589844 81.78125 108.121094 82.5 109.800781 C 82.859375 110.578125 83.160156 111.390625 83.398438 112.230469 C 83.429688 112.351562 83.460938 112.441406 83.488281 112.558594 C 83.910156 114.03125 84.179688 115.558594 84.238281 117.148438 C 84.300781 117.601562 84.328125 118.078125 84.328125 118.558594 Z M 84.328125 118.558594 "/>
<path style=" stroke:none;fill-rule:nonzero;fill:rgb(100%,92.54902%,70.19608%);fill-opacity:1;" d="M 78.179688 118.558594 C 78.179688 119.789062 78.03125 120.960938 77.699219 122.070312 C 77.398438 123.269531 76.949219 124.410156 76.378906 125.488281 C 76.289062 125.671875 76.078125 126 76.078125 126 L 49.441406 126 C 49.410156 125.96875 49.378906 125.910156 49.378906 125.878906 C 49.019531 125.308594 48.71875 124.738281 48.480469 124.109375 C 47.878906 122.730469 47.519531 121.230469 47.398438 119.671875 C 47.339844 119.308594 47.339844 118.921875 47.339844 118.558594 C 47.339844 118.378906 47.339844 118.171875 47.371094 117.988281 C 47.398438 116.671875 47.578125 115.410156 47.941406 114.238281 C 48.238281 113.160156 48.628906 112.171875 49.140625 111.210938 C 49.140625 111.210938 49.171875 111.179688 49.171875 111.148438 C 49.53125 110.519531 49.921875 109.890625 50.371094 109.289062 C 51.839844 107.308594 53.789062 105.691406 56.039062 104.640625 C 56.070312 104.640625 56.070312 104.640625 56.070312 104.640625 C 56.789062 104.28125 57.539062 103.980469 58.320312 103.769531 C 58.320312 103.769531 58.320312 103.769531 58.351562 103.769531 C 59.730469 103.351562 61.230469 103.140625 62.761719 103.140625 C 64.53125 103.140625 66.238281 103.410156 67.800781 103.980469 C 68.371094 104.128906 68.910156 104.371094 69.449219 104.640625 C 69.449219 104.640625 69.449219 104.640625 69.480469 104.640625 C 72.058594 105.871094 74.25 107.789062 75.75 110.191406 C 76.050781 110.640625 76.320312 111.121094 76.558594 111.628906 C 76.679688 111.839844 76.800781 112.078125 76.890625 112.289062 C 77.578125 113.851562 78 115.558594 78.121094 117.359375 C 78.148438 117.511719 78.148438 117.660156 78.148438 117.839844 C 78.179688 118.078125 78.179688 118.320312 78.179688 118.558594 Z M 78.179688 118.558594 "/>
<path style="fill:none;stroke-width:7.16667;stroke-linecap:round;stroke-linejoin:round;stroke:rgb(100%,100%,100%);stroke-opacity:1;stroke-miterlimit:10;" d="M 107.5 39.416667 L 64.5 39.416667 C 50.525933 39.416667 39.416667 50.525933 39.416667 64.5 L 39.416667 107.5 C 39.416667 121.474067 50.525933 132.583333 64.5 132.583333 L 107.5 132.583333 C 121.474067 132.583333 132.583333 121.474067 132.583333 107.5 L 132.583333 64.5 C 132.583333 50.525933 121.474067 39.416667 107.5 39.416667 Z M 107.5 39.416667 " transform="matrix(0.837209,0,0,0.837209,0,0)"/>
<path style=" stroke:none;fill-rule:nonzero;fill:rgb(100%,100%,100%);fill-opacity:1;" d="M 96 48 C 96 49.65625 94.65625 51 93 51 C 91.34375 51 90 49.65625 90 48 C 90 46.34375 91.34375 45 93 45 C 94.65625 45 96 46.34375 96 48 Z M 96 48 "/>
<path style="fill:none;stroke-width:7.16667;stroke-linecap:round;stroke-linejoin:round;stroke:rgb(100%,100%,100%);stroke-opacity:1;stroke-miterlimit:10;" d="M 30.000029 24.000023 C 30.000029 27.313828 27.313828 30.000029 24.000023 30.000029 C 20.686218 30.000029 18.000017 27.313828 18.000017 24.000023 C 18.000017 20.686218 20.686218 18.000017 24.000023 18.000017 C 27.313828 18.000017 30.000029 20.686218 30.000029 24.000023 Z M 30.000029 24.000023 " transform="matrix(2.999997,0,0,2.999997,0,0)"/>
</g>
</svg>
